<svg width="23" height="17" viewBox="0 0 23 17" fill="currentColor" xmlns="http://www.w3.org/2000/svg">
<path d="M19.4705 1.51392C18.0045 0.872122 16.4325 0.399275 14.7889 0.128455C14.759 0.123229 14.7291 0.136291 14.7137 0.162415C14.5115 0.505509 14.2875 0.953104 14.1307 1.30491C12.3629 1.05238 10.6041 1.05238 8.87256 1.30491C8.7157 0.945284 8.48363 0.505509 8.28055 0.162415C8.26513 0.137162 8.23523 0.1241 8.2053 0.128455C6.56258 0.398409 4.99058 0.871256 3.52373 1.51392C3.51103 1.51914 3.50015 1.52786 3.49292 1.53917C0.511167 5.7896 -0.305661 9.93556 0.0950476 14.0301C0.0968607 14.0501 0.108646 14.0693 0.124965 14.0815C2.09224 15.46 3.99789 16.2968 5.86814 16.8515C5.89808 16.8603 5.92979 16.8498 5.94884 16.8263C6.39125 16.2498 6.78562 15.642 7.12375 15.0028C7.1437 14.9654 7.12466 14.921 7.08387 14.9061C6.45834 14.6797 5.8627 14.4037 5.28974 14.0902C5.24442 14.065 5.24079 14.0031 5.28249 13.9735C5.40306 13.8873 5.52366 13.7976 5.63879 13.707C5.65962 13.6905 5.68865 13.687 5.71314 13.6974C9.47723 15.3372 13.5523 15.3372 17.272 13.6974C17.2965 13.6861 17.3255 13.6896 17.3472 13.7062C17.4624 13.7967 17.583 13.8873 17.7045 13.9735C17.7462 14.0031 17.7434 14.065 17.6981 14.0902C17.1252 14.4098 16.5295 14.6797 15.9031 14.9053C15.8623 14.9201 15.8442 14.9654 15.8641 15.0028C16.2095 15.6411 16.6039 16.2489 17.0381 16.8254C17.0562 16.8498 17.0889 16.8603 17.1188 16.8515C18.9981 16.2968 20.9038 15.46 22.871 14.0815C22.8883 14.0693 22.8992 14.051 22.901 14.031C23.3805 9.29723 22.0977 5.18527 19.5004 1.54004C19.494 1.52786 19.4832 1.51914 19.4705 1.51392ZM7.68586 11.537C6.5526 11.537 5.61884 10.5443 5.61884 9.32511C5.61884 8.10596 6.53449 7.11325 7.68586 7.11325C8.84625 7.11325 9.77098 8.11468 9.75284 9.32511C9.75284 10.5443 8.83718 11.537 7.68586 11.537ZM15.3283 11.537C14.1951 11.537 13.2613 10.5443 13.2613 9.32511C13.2613 8.10596 14.1769 7.11325 15.3283 7.11325C16.4887 7.11325 17.4134 8.11468 17.3953 9.32511C17.3953 10.5443 16.4887 11.537 15.3283 11.537Z" fill="white"/>
</svg>
