<svg xmlns="http://www.w3.org/2000/svg" viewBox="0 0 485.24 153.92"><defs><style>.cls-1{fill:#fff;}</style></defs><title>roblox-icon</title><g id="Laag_2" data-name="Laag 2"><g id="Laag_1-2" data-name="Laag 1"><path class="cls-1" d="M122.42,153.92,0,122.42Q15.77,61.18,31.5,0L153.92,31.5Zm-36.62-62,6.12-23.81L68.12,62C66.06,70,64,77.84,62,85.8Z"/><path class="cls-1" d="M307.43,138.47V92.68c.32,0,.59-.07.86-.07,7.2,0,14.41,0,21.62.07a15.16,15.16,0,0,1,10.35,3.67,11.19,11.19,0,0,1-.77,17c-.47.36-1,.69-1.55,1.1.76.36,1.43.67,2.1,1,4.56,2.26,6.51,6,6.27,11a11,11,0,0,1-7,10.13,24.88,24.88,0,0,1-10.25,1.88c-7,.06-13.93,0-20.9,0C308,138.52,307.78,138.49,307.43,138.47Zm9.83-8.91c4.44,0,8.75,0,13.05,0a9.67,9.67,0,0,0,2.93-.63,4.06,4.06,0,0,0,3-4c.08-2.29-.68-3.66-2.68-4.51a7.82,7.82,0,0,0-2.78-.71c-4.39-.09-8.77-.07-13.16-.08-.1,0-.2.1-.32.15Zm0-18.5c3.6,0,7.06.07,10.51,0a10.29,10.29,0,0,0,3.48-.82,3.91,3.91,0,0,0,2.44-4,3.86,3.86,0,0,0-2.48-3.91,10.55,10.55,0,0,0-3.5-.75c-3.17-.1-6.35,0-9.53,0a7.6,7.6,0,0,0-.92.1Z"/><path class="cls-1" d="M290.79,54V26.08h9.86V71.87h-4c-1.48,0-3.19.4-4.39-.19s-1.92-2.2-2.82-3.38L270.86,43.91c-.21-.27-.44-.51-.86-1v28.9h-9.85V26c3,0,5.87,0,8.8,0,.36,0,.79.47,1.06.82q9.9,13,19.76,25.93C290,53.13,290.31,53.45,290.79,54Z"/><path class="cls-1" d="M274.06,91.71c11.7,0,21.38,7.5,23.85,18.59a23.67,23.67,0,0,1-20.85,28.78c-8.29.81-15.64-1.31-21.31-7.61-6.11-6.78-7.58-14.82-4.81-23.41s8.88-13.58,17.52-15.61A54.6,54.6,0,0,1,274.06,91.71Zm.13,38.19c7.85,0,13.69-6.2,13.65-14.43,0-8-6.16-14.36-13.89-14.32s-13.67,6.23-13.65,14.47C260.32,123.69,266.38,129.93,274.19,129.9Z"/><path class="cls-1" d="M202.43,49c0-13.62,10.57-23.78,24.78-23.72s24.15,11,23.95,24.14-10.84,23.26-24.58,23.25S202.43,62.45,202.43,49Zm38.18,0c-.12-1-.18-2.09-.38-3.11-1.89-9.94-13.37-14.68-21.47-8.77-4.77,3.49-6.31,8.44-5.57,14.18A13.74,13.74,0,0,0,229.76,63C236.26,61.59,240.52,56.05,240.61,49Z"/><path class="cls-1" d="M390.41,115.61c0-13.47,10.54-23.75,24.39-23.79s24.28,10.14,24.33,23.66-10.59,23.76-24.41,23.8S390.41,129.09,390.41,115.61ZM428.5,117c0-10.74-7.86-17.44-16.65-15.54a13.36,13.36,0,0,0-10.61,11.19c-1,6.14.76,11.41,6.06,15A13.68,13.68,0,0,0,428.5,117Z"/><path class="cls-1" d="M204.53,92.66c.35,0,.66,0,1,0,7.09,0,14.17-.06,21.25.07,4.72.09,9.1,1.37,12.41,5,6.47,7.11,4,19.59-4.66,23.75-.46.23-.94.44-1.54.72l11.12,16.27c-.52.05-.86.1-1.19.1-3.14,0-6.28,0-9.42,0a2,2,0,0,1-1.93-1.07c-2.83-4.3-5.72-8.56-8.56-12.85a1.61,1.61,0,0,0-1.56-.83c-2.21,0-4.42,0-6.8,0v14.63H204.53Zm10.11,22.22c2.38,0,4.63,0,6.88,0a42.34,42.34,0,0,0,5.41-.25,6.13,6.13,0,0,0,5.54-6.27c0-3.34-1.86-5.6-5.32-6.29a12.88,12.88,0,0,0-2.63-.25c-2.86,0-5.71,0-8.57,0h-1.31Z"/><path class="cls-1" d="M485.24,138.52c-4,0-7.64,0-11.3,0-.39,0-.88-.48-1.13-.86-3-4.49-5.92-9-8.87-13.52-.24-.37-.49-.73-.82-1.22-.29.4-.55.73-.78,1.08-3,4.5-5.94,9-8.87,13.52a2,2,0,0,1-1.92,1.07c-3.34-.07-6.68,0-10.33,0l16-23.37L441.9,92.61h1.71c3.06,0,6.12,0,9.18,0a1.59,1.59,0,0,1,1.54.86c2.71,4.24,5.45,8.45,8.19,12.67l.85,1.28c2.6-4,5.32-7.79,7.63-11.83,1.36-2.38,2.94-3.29,5.63-3,2.53.25,5.12,0,7.93,0L469.24,115Z"/><path class="cls-1" d="M364.65,129.23H387.4v9.19H354.59V92.7h10.06Z"/></g></g></svg>