<svg xmlns="http://www.w3.org/2000/svg" viewBox="0 0 106.74 80.39"><defs><style>.cls-1{fill:#fff;}</style></defs><title>SaikouTransparent</title><g id="Laag_2" data-name="Laag 2"><g id="Laag_1-2" data-name="Laag 1"><path class="cls-1" d="M58.22,31.69l-5,8.92-5-8.92-7.4-1.16L53.42,11.67l8.84,13.5,7-1.11L53.47,0,27.73,38.51l17.76,29,4.69-8.36L46.67,52.3l-1.42,2.52L35.37,38.66l1.5-2.24,7.26,1.14,16.81,30,17.75-29-2.09-3.2,18.55-2.9L73.55,74H32.9L11.53,32.44,23,34.24l3.7-5.93L0,24.11,29,80.39H77.45l29.29-56.28Zm3,23.13-4.27-7.63,5.4-9.63,7.31-1.14,1.46,2.22Z"/></g></g></svg>